Coordinates
version=1
nRows=8
nColumns=27
inDegrees=yes

Units are S.I. units (second, meters, Newtons, ...)
If the header above contains a line with 'inDegrees', this indicates whether rotational values are in degrees (yes) or radians (no).

endheader
time	pelvis_rotation	pelvis_tilt	pelvis_list	pelvis_tx	pelvis_ty	pelvis_tz	hip_flexion_r	hip_adduction_r	hip_rotation_r	knee_angle_r	knee_rotation_r	knee_adduction_r	knee_angle_r_beta	ankle_angle_r	subtalar_angle_r	mtp_angle_r	hip_flexion_l	hip_adduction_l	hip_rotation_l	knee_angle_l	knee_rotation_l	knee_adduction_l	knee_angle_l_beta	ankle_angle_l	subtalar_angle_l	mtp_angle_l
      5.24500000	     13.47370861	    -39.41588699	      7.62966699	     -0.06255631	      0.64301551	     -1.18558739	    104.07238649	    -46.51566421	      1.46462217	     78.74290460	      0.00000000	      8.82379931	      1.37432295	      9.31058199	      0.00000000	      0.00000000	    102.23314423	    -22.45366830	     -1.39246213	     72.24138982	      0.00000000	     -9.72163584	      1.26085011	      2.51750075	      0.00000000	      0.00000000
      5.25000000	     14.37834147	    -39.41295341	      7.73514250	     -0.06174725	      0.64321911	     -1.18603526	    103.73342582	    -47.63780799	      0.74633100	     78.76789701	      0.00000000	      9.31297449	      1.37475915	      9.41260146	      0.00000000	      0.00000000	    102.41999264	    -21.57453009	     -1.02731067	     72.22309168	      0.00000000	     -9.84999228	      1.26053075	      2.61059694	      0.00000000	      0.00000000
      5.25500000	     14.36365377	    -39.36008616	      7.72107713	     -0.06132066	      0.64358394	     -1.18595691	    103.55497153	    -47.63052736	      0.65896169	     78.71908511	      0.00000000	      9.30794541	      1.37390722	      9.45891032	      0.00000000	      0.00000000	    102.29194845	    -21.60184212	     -1.05431790	     72.17196805	      0.00000000	     -9.85061149	      1.25963847	      2.58303959	      0.00000000	      0.00000000
      5.26000000	     14.41282805	    -39.32927241	      7.57296786	     -0.06087533	      0.64396579	     -1.18593436	    103.19235632	    -47.74118958	      0.28625101	     78.64514617	      0.00000000	      9.31676177	      1.37261674	      9.49769622	      0.00000000	      0.00000000	    102.28172170	    -21.53084545	     -0.89042888	     72.13508271	      0.00000000	     -9.85047784	      1.25899470	      2.59037396	      0.00000000	      0.00000000
      5.26500000	     14.39968474	    -39.28808864	      7.65977102	     -0.06054254	      0.64427098	     -1.18588529	    103.19389729	    -47.70829972	      0.39693100	     78.62322148	      0.00000000	      9.31346816	      1.37223408	      9.47063044	      0.00000000	      0.00000000	    102.12223708	    -21.58640759	     -1.04639596	     72.07755905	      0.00000000	     -9.85108431	      1.25799072	      2.59500781	      0.00000000	      0.00000000
      5.27000000	     14.35407335	    -39.27759371	      7.65271157	     -0.06023397	      0.64457909	     -1.18583226	    103.11629458	    -47.66056215	      0.37517781	     78.58386505	      0.00000000	      9.30848254	      1.37154718	      9.47809522	      0.00000000	      0.00000000	    102.03662746	    -21.64662004	     -1.09599844	     72.03299192	      0.00000000	     -9.85195027	      1.25721288	      2.59872829	      0.00000000	      0.00000000
      5.27500000	     14.37418438	    -39.22200441	      7.65657782	     -0.05985127	      0.64491926	     -1.18579469	    102.96145683	    -47.69601181	      0.29444339	     78.54422993	      0.00000000	      9.31776605	      1.37085542	      9.49469051	      0.00000000	      0.00000000	    101.91095329	    -21.64676050	     -1.13777648	     71.97686202	      0.00000000	     -9.85218053	      1.25623323	      2.58518925	      0.00000000	      0.00000000
      5.28000000	     13.57385031	    -39.19673253	      7.55430188	     -0.05993286	      0.64532350	     -1.18536203	    103.09296060	    -46.71954717	      0.84375995	     78.45290484	      0.00000000	      8.85660735	      1.36926150	      9.39379045	      0.00000000	      0.00000000	    101.59851273	    -22.44594489	     -1.51945575	     71.90577519	      0.00000000	     -9.72621740	      1.25499253	      2.54538715	      0.00000000	      0.00000000
